# xmcd
#
# Track frame offsets:
#	150
#	19377
#	42570
#	64037
#	87650
#	107157
#	121885
#	142170
#	163445
#	181802
#
# Disc length: 2780 seconds
#
# Revision: 2
# Processed by: cddbd v1.5.2PL0 Copyright (c) Steve Scherf et al.
# Submitted via: EZCDAudioConverter 8.0.2.1
#
DISCID=960ada0a
DTITLE=Hương Lan, Ái Vân - Mưa Sài Gòn Mưa Hà Nội
DYEAR=1993
DGENRE=Country
TTITLE0=Ái Vân, Hương Lan - Xóm đêm
TTITLE1=Hương Lan - Bọt biển
TTITLE2=Ái Vân, Hương Lan - Đêm đô thị
TTITLE3=Ái Vân - Mùa xuân trong đôi mắt em
TTITLE4=Hương Lan - Kỷ niệm trong tôi
TTITLE5=Ái Vân, Hương Lan - Mưa Sài Gòn Mưa Hà Nội
TTITLE6=Ái Vân - Và con tim đã vui trở lại
TTITLE7=Hương Lan - Cho nhau lời nguyện cầu
TTITLE8=Ái Vân - Làm sao quên được
TTITLE9=Ái Vân, Hương Lan - Tiếng sáo thiên thai
EXTD=
EXTT0=
EXTT1=
EXTT2=
EXTT3=
EXTT4=
EXTT5=
EXTT6=
EXTT7=
EXTT8=
EXTT9=
PLAYORDER=
